<?xml version="1.0" standalone="no"?>
<!DOCTYPE svg PUBLIC "-//W3C//DTD SVG 20010904//EN"
"http://www.w3.org/TR/2001/REC-SVG-20010904/DTD/svg10.dtd">
<svg version="1.0" xmlns="http://www.w3.org/2000/svg"
  width="500.000000pt" height="500.000000pt" viewBox="0 0 500.000000 500.000000"
  preserveAspectRatio="xMidYMid meet">

  <g transform="translate(0.000000,500.000000) scale(0.100000,-0.100000)"
    fill="#000000" stroke="none">
    <path d="M0 3335 c0 -19 73 -91 365 -357 201 -183 364 -336 363 -340 -2 -5
           -165 -155 -363 -335 -295 -266 -361 -331 -363 -354 l-3 -29 2119 0 2119 0 381
           346 c326 296 382 350 382 374 0 23 -56 78 -381 374 l-381 346 -2119 0 -2119 0
           0 -25z m4615 -346 c206 -187 375 -344 375 -349 0 -5 -169 -162 -375 -349
           l-376 -341 -2117 0 -2117 1 37 32 c127 111 718 652 718 657 0 5 -591 546 -718
           657 l-37 32 2117 1 2117 0 376 -341z"/>
    <path d="M141 3286 c67 -57 694 -632 694 -636 0 -5 -377 -350 -689 -631 -6 -5
           898 -9 2030 -9 l2041 0 349 317 c192 175 349 320 349 323 0 3 -157 148 -349
           323 l-349 317 -2040 0 c-1122 0 -2038 -2 -2036 -4z m1918 -167 c32 -11 61 -52
           61 -88 0 -11 -12 -33 -26 -50 -21 -26 -33 -31 -69 -31 -36 0 -48 5 -69 31 -14
           17 -26 39 -26 49 0 35 24 73 55 86 37 16 35 16 74 3z m851 -135 c0 -24 -8 -43
           -26 -61 -23 -22 -31 -25 -71 -19 -72 10 -103 46 -39 46 50 0 88 35 89 84 l1
           38 23 -26 c14 -17 23 -40 23 -62z m-1464 25 c15 -17 20 -40 22 -115 l4 -94 89
           0 88 0 3 113 3 112 61 3 c48 2 66 -1 85 -17 l24 -19 3 -276 c4 -314 11 -291
           -86 -291 -79 0 -92 20 -92 141 l0 94 -90 0 -90 0 0 -114 0 -115 -52 -6 c-60
           -7 -102 5 -117 34 -12 22 -16 553 -4 564 3 4 34 7 68 7 50 0 66 -4 81 -21z
           m2288 -11 c12 -16 16 -47 16 -115 0 -83 -2 -94 -25 -120 l-24 -28 -1 143 c0
           82 4 142 9 142 6 0 17 -10 25 -22z m-1319 -246 c0 -180 -1 -187 -20 -187 -19
           0 -20 8 -23 210 l-2 210 22 -23 c22 -22 23 -28 23 -210z m-330 133 c25 -24 25
           -24 25 -238 0 -240 4 -227 -74 -227 -29 0 -52 7 -70 21 l-26 20 0 219 c0 245
           -6 227 78 229 33 1 48 -5 67 -24z m806 -52 c11 -12 15 -68 17 -233 l4 -217
           -24 -6 c-42 -12 -103 -7 -126 9 -25 17 -30 47 -7 38 8 -4 35 -3 60 0 l45 7 0
           210 c0 115 4 209 9 209 5 0 15 -7 22 -17z m1139 -54 c0 -21 -89 -123 -123
           -141 -15 -7 -24 -5 -42 12 l-24 22 47 40 c66 55 92 89 92 118 l1 25 24 -28
           c14 -15 25 -37 25 -48z m-560 -38 c5 -20 10 -109 10 -197 0 -182 4 -174 -81
           -174 -36 0 -54 5 -69 20 -27 27 -25 38 5 32 14 -2 41 -1 60 2 l36 7 -3 189
           c-3 179 -2 188 14 173 10 -9 22 -32 28 -52z m-218 27 l22 -22 -45 -10 -44 -11
           -3 -170 c-2 -120 -6 -171 -15 -177 -6 -4 -36 -8 -64 -8 -40 0 -58 5 -73 20
           -27 27 -25 38 5 32 14 -2 41 -1 60 2 l35 7 0 170 c0 167 0 170 23 179 38 15
           76 11 99 -12z m498 -303 l0 -84 -36 -7 c-48 -9 -106 2 -121 23 -17 23 -16 34
           2 27 8 -4 35 -3 60 0 l45 7 0 87 1 87 24 -28 c22 -25 25 -37 25 -112z m-1096
           12 c12 -46 -4 -84 -40 -97 -14 -6 -89 -9 -168 -8 -116 3 -147 6 -169 21 -15 9
           -27 22 -27 27 0 6 65 10 168 10 180 0 192 3 192 50 0 54 30 52 44 -3z m1386
           -19 c0 -27 -26 -74 -45 -82 -42 -16 -85 -6 -123 28 l-37 35 40 -11 c55 -14 92
           2 111 48 15 35 16 36 35 18 10 -9 19 -26 19 -36z m-2275 -104 c72 -9 254 -40
           405 -69 432 -85 476 -89 850 -89 429 0 746 35 1040 115 144 39 154 40 158 13
           4 -25 -18 -34 -268 -103 -429 -120 -756 -168 -1060 -158 -254 9 -380 30 -890
           152 -436 104 -533 119 -662 105 -141 -16 -255 -62 -391 -157 -75 -52 -106 -62
           -114 -36 -6 16 97 95 178 138 204 107 400 130 754 89z"/>
    </g>
  </svg>
